<svg width="31" height="11" viewBox="0 0 31 11" fill="none" xmlns="http://www.w3.org/2000/svg">
<path d="M27.0625 1.43945V3.05664C26.2734 2.39648 25.457 2.06641 24.6133 2.06641C23.6836 2.06641 22.9004 2.40039 22.2637 3.06836C21.623 3.73242 21.3027 4.54492 21.3027 5.50586C21.3027 6.45508 21.623 7.25586 22.2637 7.9082C22.9043 8.56055 23.6895 8.88672 24.6191 8.88672C25.0996 8.88672 25.5078 8.80859 25.8438 8.65234C26.0312 8.57422 26.2246 8.46875 26.4238 8.33594C26.627 8.20312 26.8398 8.04297 27.0625 7.85547V9.50195C26.2812 9.94336 25.4609 10.1641 24.6016 10.1641C23.3086 10.1641 22.2051 9.71289 21.291 8.81055C20.3809 7.90039 19.9258 6.80273 19.9258 5.51758C19.9258 4.36523 20.3066 3.33789 21.0684 2.43555C22.0059 1.33008 23.2188 0.777344 24.707 0.777344C25.5195 0.777344 26.3047 0.998047 27.0625 1.43945Z" fill="black"/>
<circle cx="23.5" cy="4.5" r="0.5" transform="rotate(-90 23.5 4.5)" fill="black"/>
<circle cx="25.5" cy="4.5" r="0.5" transform="rotate(-90 25.5 4.5)" fill="black"/>
<circle cx="23.5" cy="6.5" r="0.5" transform="rotate(-90 23.5 6.5)" fill="black"/>
<circle cx="25.5" cy="6.5" r="0.5" transform="rotate(-90 25.5 6.5)" fill="black"/>
<circle cx="24.5" cy="5.5" r="0.5" transform="rotate(-90 24.5 5.5)" fill="black"/>
<path d="M7.28906 0.953125V8.7168H9.94922V10H5.92383V0.953125H7.28906Z" fill="black"/>
<path d="M9.77148 5.43555C9.77148 4.16211 10.2383 3.06836 11.1719 2.1543C12.1016 1.24023 13.2188 0.783203 14.5234 0.783203C15.8125 0.783203 16.918 1.24414 17.8398 2.16602C18.7656 3.08789 19.2285 4.19531 19.2285 5.48828C19.2285 6.78906 18.7637 7.89258 17.834 8.79883C16.9004 9.70898 15.7734 10.1641 14.4531 10.1641C13.2852 10.1641 12.2363 9.75977 11.3066 8.95117C10.2832 8.05664 9.77148 6.88477 9.77148 5.43555ZM11.1484 5.45312C11.1484 6.45312 11.4844 7.27539 12.1562 7.91992C12.8242 8.56445 13.5957 8.88672 14.4707 8.88672C15.4199 8.88672 16.2207 8.55859 16.873 7.90234C17.5254 7.23828 17.8516 6.42969 17.8516 5.47656C17.8516 4.51172 17.5293 3.70312 16.8848 3.05078C16.2441 2.39453 15.4512 2.06641 14.5059 2.06641C13.5645 2.06641 12.7695 2.39453 12.1211 3.05078C11.4727 3.69922 11.1484 4.5 11.1484 5.45312Z" fill="black"/>
<rect x="14" y="2" width="1" height="7" fill="black"/>
<rect x="11" y="6" width="1" height="7" transform="rotate(-90 11 6)" fill="black"/>
</svg>
